HIERARCHY
ROOT Hips
{
    OFFSET   0.000000   0.000000   0.000000
    CHANNELS 6 Xposition Yposition Zposition Zrotation Xrotation Yrotation
    JOINT Chest
    {
        OFFSET   0.000000   8.007240   0.000000
        CHANNELS 3 Zrotation Xrotation Yrotation
        JOINT Chest2
        {
            OFFSET   0.000000  22.077100   0.000000
            CHANNELS 3 Zrotation Xrotation Yrotation
            JOINT Neck
            {
                OFFSET   0.000000  23.254800   0.000000
                CHANNELS 3 Zrotation Xrotation Yrotation
                JOINT Head
                {
                    OFFSET   0.000000  14.370000   1.956600
                    CHANNELS 3 Zrotation Xrotation Yrotation
                    End Site
                    {
                        OFFSET   0.000000  19.566000   0.000000
                    }
                }
            }
            JOINT LeftCollar
            {
                OFFSET   3.911900  19.017000  -0.467064
                CHANNELS 3 Zrotation Xrotation Yrotation
                JOINT LeftShoulder
                {
                    OFFSET  10.383700   0.000000   0.000000
                    CHANNELS 3 Zrotation Xrotation Yrotation
                    JOINT LeftElbow
                    {
                        OFFSET  26.662100   0.001476   0.000517
                        CHANNELS 3 Zrotation Xrotation Yrotation
                        JOINT LeftWrist
                        {
                            OFFSET  28.869000  -0.000025  -0.000106
                            CHANNELS 3 Zrotation Xrotation Yrotation
                            JOINT LeftFinger0
                            {
                                OFFSET   2.044660  -2.323460   3.252850
                                CHANNELS 3 Zrotation Xrotation Yrotation
                                JOINT LeftFinger01
                                {
                                    OFFSET   3.088130   0.000000   0.000000
                                    CHANNELS 3 Zrotation Xrotation Yrotation
                                    JOINT LeftFinger02
                                    {
                                        OFFSET   2.639460   0.000000   0.000000
                                        CHANNELS 3 Zrotation Xrotation Yrotation
                                        End Site
                                        {
                                            OFFSET   2.582190   0.000000   0.000000
                                        }
                                    }
                                }
                            }
                            JOINT LeftFinger1
                            {
                                OFFSET   8.364480   0.000000   3.252850
                                CHANNELS 3 Zrotation Xrotation Yrotation
                                JOINT LeftFinger11
                                {
                                    OFFSET   4.646930   0.000000   0.000000
                                    CHANNELS 3 Zrotation Xrotation Yrotation
                                    JOINT LeftFinger12
                                    {
                                        OFFSET   2.323460   0.000000   0.000000
                                        CHANNELS 3 Zrotation Xrotation Yrotation
                                        End Site
                                        {
                                            OFFSET   2.273050   0.000000   0.000000
                                        }
                                    }
                                }
                            }
                            JOINT LeftFinger2
                            {
                                OFFSET   8.364490   0.000015   1.078090
                                CHANNELS 3 Zrotation Xrotation Yrotation
                                JOINT LeftFinger21
                                {
                                    OFFSET   5.111620   0.000000   0.000000
                                    CHANNELS 3 Zrotation Xrotation Yrotation
                                    JOINT LeftFinger22
                                    {
                                        OFFSET   2.788160   0.000016   0.000000
                                        CHANNELS 3 Zrotation Xrotation Yrotation
                                        End Site
                                        {
                                            OFFSET   2.727660   0.000000   0.000000
                                        }
                                    }
                                }
                            }
                            JOINT LeftFinger3
                            {
                                OFFSET   7.899780   0.000017  -1.078090
                                CHANNELS 3 Zrotation Xrotation Yrotation
                                JOINT LeftFinger31
                                {
                                    OFFSET   4.646930   0.000000   0.000000
                                    CHANNELS 3 Zrotation Xrotation Yrotation
                                    JOINT LeftFinger32
                                    {
                                        OFFSET   2.323470   0.000000   0.000000
                                        CHANNELS 3 Zrotation Xrotation Yrotation
                                        End Site
                                        {
                                            OFFSET   2.273050   0.000000   0.000000
                                        }
                                    }
                                }
                            }
                            JOINT LeftFinger4
                            {
                                OFFSET   7.435090   0.000000  -3.252850
                                CHANNELS 3 Zrotation Xrotation Yrotation
                                JOINT LeftFinger41
                                {
                                    OFFSET   3.717550   0.000000   0.000000
                                    CHANNELS 3 Zrotation Xrotation Yrotation
                                    JOINT LeftFinger42
                                    {
                                        OFFSET   1.858770   0.000000   0.000000
                                        CHANNELS 3 Zrotation Xrotation Yrotation
                                        End Site
                                        {
                                            OFFSET   1.818440   0.000000   0.000000
                                        }
                                    }
                                }
                            }
                        }
                    }
                }
            }
            JOINT RightCollar
            {
                OFFSET  -3.911900  19.017000  -0.467063
                CHANNELS 3 Zrotation Xrotation Yrotation
                JOINT RightShoulder
                {
                    OFFSET -10.383700   0.000019   0.000000
                    CHANNELS 3 Zrotation Xrotation Yrotation
                    JOINT RightElbow
                    {
                        OFFSET -26.662100   0.001175   0.000102
                        CHANNELS 3 Zrotation Xrotation Yrotation
                        JOINT RightWrist
                        {
                            OFFSET -28.869000   0.000016  -0.000079
                            CHANNELS 3 Zrotation Xrotation Yrotation
                            JOINT RightFinger0
                            {
                                OFFSET  -2.044660  -2.323490   3.252850
                                CHANNELS 3 Zrotation Xrotation Yrotation
                                JOINT RightFinger01
                                {
                                    OFFSET  -3.088140   0.000000   0.000000
                                    CHANNELS 3 Zrotation Xrotation Yrotation
                                    JOINT RightFinger02
                                    {
                                        OFFSET  -2.639460   0.000000   0.000000
                                        CHANNELS 3 Zrotation Xrotation Yrotation
                                        End Site
                                        {
                                            OFFSET  -2.582190   0.000000   0.000000
                                        }
                                    }
                                }
                            }
                            JOINT RightFinger1
                            {
                                OFFSET  -8.364480   0.000000   3.252850
                                CHANNELS 3 Zrotation Xrotation Yrotation
                                JOINT RightFinger11
                                {
                                    OFFSET  -4.646930   0.000000   0.000000
                                    CHANNELS 3 Zrotation Xrotation Yrotation
                                    JOINT RightFinger12
                                    {
                                        OFFSET  -2.323470   0.000000   0.000000
                                        CHANNELS 3 Zrotation Xrotation Yrotation
                                        End Site
                                        {
                                            OFFSET  -2.273050   0.000000   0.000000
                                        }
                                    }
                                }
                            }
                            JOINT RightFinger2
                            {
                                OFFSET  -8.364480   0.000000   1.078090
                                CHANNELS 3 Zrotation Xrotation Yrotation
                                JOINT RightFinger21
                                {
                                    OFFSET  -5.111620   0.000000   0.000000
                                    CHANNELS 3 Zrotation Xrotation Yrotation
                                    JOINT RightFinger22
                                    {
                                        OFFSET  -2.788160   0.000000   0.000000
                                        CHANNELS 3 Zrotation Xrotation Yrotation
                                        End Site
                                        {
                                            OFFSET  -2.727660   0.000000   0.000000
                                        }
                                    }
                                }
                            }
                            JOINT RightFinger3
                            {
                                OFFSET  -7.899780   0.000000  -1.078090
                                CHANNELS 3 Zrotation Xrotation Yrotation
                                JOINT RightFinger31
                                {
                                    OFFSET  -4.646930   0.000000   0.000000
                                    CHANNELS 3 Zrotation Xrotation Yrotation
                                    JOINT RightFinger32
                                    {
                                        OFFSET  -2.323470   0.000000   0.000000
                                        CHANNELS 3 Zrotation Xrotation Yrotation
                                        End Site
                                        {
                                            OFFSET  -2.273050   0.000000   0.000000
                                        }
                                    }
                                }
                            }
                            JOINT RightFinger4
                            {
                                OFFSET  -7.435090   0.000000  -3.252850
                                CHANNELS 3 Zrotation Xrotation Yrotation
                                JOINT RightFinger41
                                {
                                    OFFSET  -3.717550   0.000000   0.000000
                                    CHANNELS 3 Zrotation Xrotation Yrotation
                                    JOINT RightFinger42
                                    {
                                        OFFSET  -1.858770   0.000000   0.000000
                                        CHANNELS 3 Zrotation Xrotation Yrotation
                                        End Site
                                        {
                                            OFFSET  -1.818440   0.000000   0.000000
                                        }
                                    }
                                }
                            }
                        }
                    }
                }
            }
        }
    }
    JOINT LeftHip
    {
        OFFSET   9.783040   0.000000   0.000000
        CHANNELS 3 Zrotation Xrotation Yrotation
        JOINT LeftKnee
        {
            OFFSET   0.000032 -41.789100  -0.002222
            CHANNELS 3 Zrotation Xrotation Yrotation
            JOINT LeftAnkle
            {
                OFFSET   0.000087 -41.133200  -0.000135
                CHANNELS 3 Zrotation Xrotation Yrotation
                JOINT LeftToe
                {
                    OFFSET   0.000000  -6.358960  14.674500
                    CHANNELS 3 Zrotation Xrotation Yrotation
                    End Site
                    {
                        OFFSET   0.000000   0.000000   3.913200
                    }
                }
            }
        }
    }
    JOINT RightHip
    {
        OFFSET  -9.783040   0.000000   0.000000
        CHANNELS 3 Zrotation Xrotation Yrotation
        JOINT RightKnee
        {
            OFFSET   0.000047 -41.789100  -0.000896
            CHANNELS 3 Zrotation Xrotation Yrotation
            JOINT RightAnkle
            {
                OFFSET  -0.000117 -41.133300  -0.000248
                CHANNELS 3 Zrotation Xrotation Yrotation
                JOINT RightToe
                {
                    OFFSET   0.000000  -6.358970  14.674500
                    CHANNELS 3 Zrotation Xrotation Yrotation
                    End Site
                    {
                        OFFSET   0.000000   0.000000   3.913200
                    }
                }
            }
        }
    }
}
MOTION
Frames: 5
Frame Time:   0.016667
  0.286454  89.459400   2.014770  -2.044720  -1.582360  -1.532170   0.769110   2.137030  -0.238674   1.548730   4.270640  -0.506586   1.542140  -1.185400   0.042870   2.533250  -2.398690   6.043650  -5.287210   1.511040   0.258039 -68.066500  20.627800  -5.943180  -3.662470  -5.969360  -9.188050   6.304340  -7.204320  11.162000  40.102600  31.502200 -72.663900 -15.835100  -0.007237  -0.001425  -2.909930  -0.004110   0.009700 -33.967700   6.902370 -10.114500 -28.292100  -0.000721  -0.003696 -19.804500  -0.002213  -0.002623 -28.694100   2.094900  -3.821470 -40.554600  -0.000588  -0.001058 -27.009300   0.004608   0.011339 -28.706100  -0.238116   0.434870 -39.132600  -0.000664  -0.001861 -26.062300   0.002404  -0.001316 -35.011300  -0.284459   0.406062 -52.518500   0.000352  -0.002472 -34.977300   0.012402   0.002285   6.933440   0.579271   9.588460  67.849400  13.602300   0.736127   0.696913  -2.424850   5.803160 -14.070100 -16.525700  -2.333860 -46.034600  39.819400  82.020300  20.345200  -0.001041  -0.004338   5.183030   0.004377  -0.002092  30.058700   6.159530  10.486100  25.057400   0.000766   0.002415  17.540200   0.007602   0.012501  27.425800   4.084610   7.815850  30.188600  -0.000427   0.013287  20.105600  -0.005139   0.000970  27.387800   4.048330   7.759820  29.976900  -0.005924   0.011334  19.964600   0.003038   0.005471  33.031300   0.666845   1.023750  49.555900   0.002835   0.009603  33.004200   0.001488   0.006974   2.613470   5.264120   1.341940   1.035210   0.894328   4.101730  -3.038060  -4.304360  14.279700  -0.000000   0.000000   0.000000   1.726620   0.921111  -6.002670   1.185010   4.324020  -1.214570  -5.051980  -3.330100  -1.417760   0.000000   0.000000   0.000000
  0.295319  89.459400   2.033440  -2.044600  -1.588830  -1.524320   0.775124   2.146820  -0.242057   1.560960   4.290130  -0.513720   1.542190  -1.197650   0.042874   2.534890  -2.423080   6.051490  -5.295950   1.510720   0.258039 -68.045400  20.640700  -5.965130  -3.663120  -5.979710  -9.174740   6.289190  -7.191390  11.161100  40.095200  31.508600 -72.676900 -15.831100  -0.007243  -0.001425  -2.909930  -0.004114   0.009713 -33.975600   6.908560 -10.120700 -28.299000  -0.000724  -0.003700 -19.809300  -0.002214  -0.002626 -28.693600   2.099000  -3.828910 -40.570000  -0.000588  -0.001058 -27.019600   0.004609   0.011344 -28.706300  -0.234625   0.428478 -39.142700  -0.000666  -0.001864 -26.069100   0.002403  -0.001318 -35.017700  -0.280318   0.400070 -52.528100   0.000350  -0.002472 -34.983600   0.012408   0.002290   6.926610   0.578537   9.604820  67.843700  13.602600   0.735806   0.697300  -2.427600   5.788750 -14.066600 -16.532900  -2.339380 -46.019500  39.830600  82.042900  20.345200  -0.001038  -0.004332   5.183130   0.004374  -0.002087  30.080000   6.159540  10.485900  25.074300   0.000765   0.002414  17.552000   0.007601   0.012503  27.425800   4.084610   7.815850  30.221800  -0.000427   0.013295  20.127700  -0.005143   0.000973  27.387800   4.048330   7.759820  30.002500  -0.005922   0.011333  19.981700   0.003035   0.005469  33.046800   0.666479   1.023750  49.579100   0.002835   0.009602  33.019700   0.001484   0.006973   2.609400   5.288460   1.342280   1.028230   0.880326   4.096920  -3.035470  -4.304740  14.278900  -0.000000   0.000000   0.000000   1.720680   0.944500  -5.994770   1.187850   4.319470  -1.219170  -5.047180  -3.341160  -1.430890   0.000000   0.000000   0.000000
  0.310060  89.459400   2.064000  -2.044290  -1.598870  -1.508770   0.786072   2.163270  -0.248421   1.583220   4.322880  -0.527104   1.542260  -1.216480   0.042878   2.536930  -2.460740   6.064970  -5.311280   1.508530   0.258041 -68.010700  20.665800  -6.002570  -3.663970  -5.997040  -9.152820   6.268990  -7.176200  11.160100  40.088100  31.514000 -72.690600 -15.819900  -0.007258  -0.001426  -2.909930  -0.004124   0.009737 -33.981900   6.919370 -10.133400 -28.305900  -0.000733  -0.003710 -19.814200  -0.002215  -0.002634 -28.692400   2.107420  -3.844230 -40.585400  -0.000585  -0.001060 -27.029900   0.004613   0.011360 -28.706600  -0.226420   0.413476 -39.152800  -0.000674  -0.001874 -26.075800   0.002401  -0.001326 -35.024100  -0.270554   0.386032 -52.537600   0.000349  -0.002472 -34.990000   0.012424   0.002302   6.913880   0.573542   9.635910  67.832200  13.602900   0.733549   0.701108  -2.435520   5.762460 -14.047300 -16.540100  -2.344890 -46.011200  39.845300  82.069300  20.345200  -0.001035  -0.004316   5.183280   0.004371  -0.002076  30.101400   6.159540  10.485600  25.091200   0.000759   0.002410  17.563900   0.007598   0.012508  27.425800   4.084610   7.815850  30.255100  -0.000428   0.013318  20.149900  -0.005147   0.000980  27.387800   4.048330   7.759820  30.028200  -0.005918   0.011330  19.998800   0.003032   0.005460  33.062200   0.666113   1.023750  49.602300   0.002835   0.009599  33.035100   0.001473   0.006971   2.603010   5.324140   1.342680   1.017050   0.866329   4.087710  -3.032510  -4.307360  14.275700  -0.000000   0.000000   0.000000   1.711370   0.979711  -5.983010   1.193400   4.314900  -1.227960  -5.042420  -3.358890  -1.452830  -0.000000   0.000000   0.000000
  0.321728  89.459400   2.087180  -2.043730  -1.604570  -1.490780   0.796841   2.176350  -0.255215   1.605120   4.348910  -0.541302   1.542240  -1.228360   0.042877   2.537330  -2.484900   6.076580  -5.324730   1.503150   0.262545 -67.983800  20.696100  -6.034190  -3.661530  -6.010840  -9.134440   6.263090  -7.173480  11.163900  40.083800  31.504600 -72.682000 -15.799400  -0.007278  -0.001437  -2.901460  -0.004136   0.009756 -33.977300   6.930000 -10.149700 -28.304100  -0.000747  -0.003726 -19.812900  -0.002214  -0.002648 -28.691000   2.118250  -3.864020 -40.584400  -0.000581  -0.001066 -27.029300   0.004620   0.011387 -28.707000  -0.213935   0.390672 -39.152300  -0.000688  -0.001889 -26.075500   0.002397  -0.001340 -35.023600  -0.255650   0.364739 -52.536600   0.000351  -0.002473 -34.989400   0.012447   0.002319   6.900330   0.557851   9.667470  67.821100  13.602200   0.724085   0.711440  -2.449740   5.738120 -13.998800 -16.532200  -2.329720 -46.021600  39.848000  82.071800  20.350700  -0.001038  -0.004291   5.183340   0.004381  -0.002060  30.091700   6.156680  10.485400  25.083200   0.000743   0.002405  17.558300   0.007593   0.012516  27.423700   4.080320   7.808430  30.241200  -0.000427   0.013357  20.140700  -0.005149   0.000987  27.384500   4.043860   7.752420  30.008100  -0.005910   0.011327  19.985400   0.003035   0.005443  33.050500   0.668729   1.027980  49.584700   0.002834   0.009594  33.023400   0.001456   0.006969   2.598050   5.342300   1.342760   1.009500   0.869130   4.077610  -3.031210  -4.314990  14.268700  -0.000000   0.000000   0.000000   1.705090   0.997940  -5.975470   1.201360   4.318390  -1.240150  -5.043290  -3.371070  -1.469720   0.000000   0.000000   0.000000
  0.333462  89.459400   2.109890  -2.043130  -1.610960  -1.470500   0.808568   2.190320  -0.262524   1.628960   4.376680  -0.556587   1.542080  -1.238060   0.042865   2.536480  -2.504760   6.088690  -5.340110   1.493940   0.268919 -67.956900  20.726500  -6.067010  -3.655710  -6.025060  -9.119280   6.262810  -7.172890  11.172500  40.077600  31.488500 -72.663500 -15.778200  -0.007308  -0.001456  -2.889080  -0.004154   0.009781 -33.970000   6.939240 -10.166300 -28.299300  -0.000766  -0.003747 -19.809500  -0.002213  -0.002666 -28.689400   2.129460  -3.884550 -40.579400  -0.000574  -0.001076 -27.025900   0.004629   0.011424 -28.707400  -0.200411   0.365979 -39.148900  -0.000705  -0.001910 -26.073200   0.002392  -0.001359 -35.021200  -0.239486   0.341695 -52.532900   0.000354  -0.002475 -34.986900   0.012478   0.002341   6.888520   0.532859   9.706240  67.804100  13.597000   0.712945   0.724265  -2.466120   5.708110 -13.935500 -16.508300  -2.308260 -46.031700  39.852100  82.073900  20.357800  -0.001045  -0.004257   5.183360   0.004396  -0.002042  30.071000   6.151550  10.485200  25.065800   0.000723   0.002396  17.546100   0.007588   0.012526  27.419400   4.073700   7.797350  30.213600  -0.000425   0.013409  20.122300  -0.005150   0.000995  27.378600   4.035910   7.739350  29.971400  -0.005902   0.011321  19.961000   0.003037   0.005419  33.028900   0.673442   1.035740  49.552500   0.002833   0.009588  33.001900   0.001432   0.006966   2.594870   5.354830   1.342800   1.002500   0.882120   4.066550  -3.028870  -4.329170  14.259700   0.000000   0.000000   0.000000   1.699700   1.015670  -5.971810   1.206670   4.323970  -1.248150  -5.044270  -3.383480  -1.488210   0.000000   0.000000   0.000000
